<svg width="25" height="25" xmlns="http://www.w3.org/2000/svg">

 <g>
  <title>background</title>
  <rect fill="none" id="canvas_background" height="27" width="27" y="-1" x="-1"/>
 </g>
 <g>
  <title>Layer 1</title>
  <path stroke="null" fill="#f6eed6" id="svg_1" d="m24.264556,20.985325l-8.413899,-8.413899l8.413899,-8.413899c0.908392,-0.908392 0.908392,-2.370838 0,-3.27923c-0.908392,-0.908392 -2.370838,-0.908392 -3.27923,0l-8.413899,8.413899l-8.413899,-8.413899c-0.908392,-0.908392 -2.370838,-0.908392 -3.27923,0c-0.908392,0.908392 -0.908392,2.370838 0,3.27923l8.413899,8.413899l-8.413899,8.413899c-0.908392,0.908392 -0.908392,2.370838 0,3.27923c0.908392,0.908392 2.370838,0.908392 3.27923,0l8.413899,-8.413899l8.413899,8.413899c0.908392,0.908392 2.370838,0.908392 3.27923,0c0.901949,-0.908392 0.901949,-2.377281 0,-3.27923z"/>
 </g>
</svg>